<svg width="20" height="20" fill="none" xmlns="http://www.w3.org/2000/svg"><path d="M8.604 3.598c.355-1.464 2.437-1.464 2.792 0a1.437 1.437 0 002.144.888c1.286-.783 2.758.688 1.975 1.975a1.436 1.436 0 00.887 2.143c1.464.355 1.464 2.437 0 2.792a1.437 1.437 0 00-.888 2.144c.784 1.286-.688 2.758-1.975 1.975a1.436 1.436 0 00-2.143.887c-.355 1.464-2.437 1.464-2.792 0a1.437 1.437 0 00-2.144-.888c-1.286.784-2.758-.688-1.975-1.975a1.437 1.437 0 00-.888-2.143c-1.463-.355-1.463-2.437 0-2.792a1.437 1.437 0 00.889-2.144c-.783-1.286.688-2.758 1.975-1.975a1.435 1.435 0 002.143-.888z" stroke="#232323" stroke-linecap="round" stroke-linejoin="round"/><path d="M10 12.5a2.5 2.5 0 100-5 2.5 2.5 0 000 5z" stroke="#232323" stroke-linecap="round" stroke-linejoin="round"/></svg>