<svg width="20" height="20" fill="none" xmlns="http://www.w3.org/2000/svg"><path d="M6.667 10H3.333a.833.833 0 00-.833.833v5c0 .46.373.834.833.834h3.334c.46 0 .833-.373.833-.834v-5A.833.833 0 006.667 10zm5-3.333H8.333A.833.833 0 007.5 7.5v8.334c0 .46.373.833.833.833h3.334c.46 0 .833-.373.833-.833V7.5a.833.833 0 00-.833-.833zm5-3.334h-3.334a.833.833 0 00-.833.833v11.667c0 .46.373.833.833.833h3.334c.46 0 .833-.373.833-.833V4.166a.833.833 0 00-.833-.833zM3.333 16.667H15" stroke="#232323" stroke-linecap="round" stroke-linejoin="round"/></svg>