<?xml version="1.0" encoding="utf-8"?><svg xmlns="http://www.w3.org/2000/svg" xmlns:xlink="http://www.w3.org/1999/xlink"><symbol fill="inherit" viewBox="0 0 20 20" id="Buyers" xmlns="http://www.w3.org/2000/svg"><path d="M7.5 9.167a3.333 3.333 0 100-6.667 3.333 3.333 0 000 6.667zm-5 8.333v-1.667A3.333 3.333 0 015.833 12.5h3.334a3.333 3.333 0 013.333 3.333V17.5m3.333-10.833v5m-2.5-2.5h5-5z" stroke="inherit" stroke-linecap="round" stroke-linejoin="round"/></symbol><symbol fill="inherit" viewBox="0 0 20 20" id="CheckOn" xmlns="http://www.w3.org/2000/svg"><path d="M7.5 9.167l2.5 2.5L16.667 5" stroke="inherit" stroke-linecap="round" stroke-linejoin="round"/><path d="M16.666 10v5A1.667 1.667 0 0115 16.667H5A1.667 1.667 0 013.333 15V5A1.667 1.667 0 015 3.333h7.5" stroke="inherit" stroke-linecap="round" stroke-linejoin="round"/></symbol><symbol fill="inherit" viewBox="0 0 20 20" id="Link" xmlns="http://www.w3.org/2000/svg"><path d="M8.333 11.667a2.917 2.917 0 004.167 0l3.333-3.334a2.946 2.946 0 10-4.167-4.166l-.416.416" stroke="inherit" stroke-linecap="round" stroke-linejoin="round"/><path d="M11.667 8.333a2.918 2.918 0 00-4.167 0l-3.333 3.334a2.946 2.946 0 104.166 4.166l.417-.416" stroke="inherit" stroke-linecap="round" stroke-linejoin="round"/></symbol><symbol fill="inherit" viewBox="0 0 20 20" id="Publish" xmlns="http://www.w3.org/2000/svg"><path d="M8.333 11.667L17.5 2.5m0 0l-5.417 15a.458.458 0 01-.833 0l-2.917-5.833L2.5 8.75a.458.458 0 010-.833l15-5.417z" stroke="inherit" stroke-linecap="round" stroke-linejoin="round"/></symbol><symbol fill="inherit" viewBox="0 0 20 20" id="TTN" xmlns="http://www.w3.org/2000/svg"><path d="M11.667 2.5v3.333a.833.833 0 00.833.834h3.333" stroke="inherit" stroke-linecap="round" stroke-linejoin="round"/><path d="M14.167 17.5H5.833a1.667 1.667 0 01-1.666-1.667V4.167A1.667 1.667 0 015.833 2.5h5.834l4.166 4.167v9.166a1.667 1.667 0 01-1.666 1.667z" stroke="inherit" stroke-linecap="round" stroke-linejoin="round"/><path d="M9.167 11.667H10V15h.833M10 9.167h.008" stroke="inherit" stroke-linecap="round" stroke-linejoin="round"/></symbol><symbol fill="inherit" viewBox="0 0 20 20" id="Templates" xmlns="http://www.w3.org/2000/svg"><path d="M15.833 3.333H4.167a.833.833 0 00-.834.833v1.667c0 .46.373.833.834.833h11.666c.46 0 .834-.373.834-.833V4.166a.833.833 0 00-.834-.833zM7.5 10H4.167a.833.833 0 00-.834.833v5c0 .46.373.834.834.834H7.5c.46 0 .833-.373.833-.834v-5A.833.833 0 007.5 10zm4.167 0h5m-5 3.333h5m-5 3.334h5" stroke="inherit" stroke-linecap="round" stroke-linejoin="round"/></symbol><symbol fill="inherit" viewBox="0 0 20 20" id="basket" xmlns="http://www.w3.org/2000/svg"><path d="M5 17.5a1.667 1.667 0 100-3.334A1.667 1.667 0 005 17.5zm9.167 0a1.667 1.667 0 100-3.333 1.667 1.667 0 000 3.333z" stroke="inherit" stroke-linecap="round" stroke-linejoin="round"/><path d="M14.167 14.167H5V2.5H3.333" stroke="inherit" stroke-linecap="round" stroke-linejoin="round"/><path d="M5 4.167L16.667 5l-.834 5.833H5" stroke="inherit" stroke-linecap="round" stroke-linejoin="round"/></symbol><symbol fill="inherit" viewBox="0 0 20 20" id="bill" xmlns="http://www.w3.org/2000/svg"><path d="M10.833 12.5H12.5m-8.333 5V4.167A1.667 1.667 0 015.833 2.5h8.334a1.667 1.667 0 011.666 1.667V17.5l-2.5-1.667-1.666 1.667L10 15.833 8.333 17.5l-1.666-1.667-2.5 1.667zM7.5 5.833h5-5zm0 3.334h5-5z" stroke="inherit" stroke-linecap="round" stroke-linejoin="round"/></symbol><symbol fill="inherit" viewBox="0 0 6 6" id="cross" xmlns="http://www.w3.org/2000/svg"><path d="M4.667 1.333L1.333 4.668m0-3.333l3.334 3.333-3.334-3.333z" stroke="inherit" stroke-linecap="round" stroke-linejoin="round"/></symbol><symbol fill="inherit" viewBox="0 0 20 20" id="delet" xmlns="http://www.w3.org/2000/svg"><path d="M3.333 5.833h13.333M8.333 9.166v5m3.334-5v5m-7.5-8.333l.833 10A1.667 1.667 0 006.667 17.5h6.667A1.667 1.667 0 0015 15.834l.834-10M7.5 5.833v-2.5a.833.833 0 01.833-.833h3.334a.833.833 0 01.833.833v2.5" stroke="inherit" stroke-linecap="round" stroke-linejoin="round"/></symbol><symbol fill="inherit" viewBox="0 0 12 7" id="dropdown" xmlns="http://www.w3.org/2000/svg"><path d="M10.778.75l-4.89 5.057L1 .75" stroke="inherit" stroke-linecap="round" stroke-linejoin="round"/></symbol><symbol fill="inherit" viewBox="0 0 20 20" id="edit" xmlns="http://www.w3.org/2000/svg"><path d="M7.5 5.833H5A1.667 1.667 0 003.333 7.5V15A1.667 1.667 0 005 16.666h7.5A1.667 1.667 0 0014.167 15v-2.5" stroke="inherit" stroke-linecap="round" stroke-linejoin="round"/><path d="M7.5 12.5H10l7.083-7.083a1.767 1.767 0 10-2.5-2.5L7.5 10v2.5zm5.833-8.333l2.5 2.5" stroke="inherit" stroke-linecap="round" stroke-linejoin="round"/></symbol><symbol fill="inherit" viewBox="0 0 20 20" id="employee" xmlns="http://www.w3.org/2000/svg"><path d="M7.5 9.167a3.333 3.333 0 100-6.667 3.333 3.333 0 000 6.667zm-5 8.333v-1.667A3.333 3.333 0 015.833 12.5h3.334a3.333 3.333 0 013.333 3.333V17.5m.833-14.892a3.333 3.333 0 010 6.459M17.5 17.5v-1.667a3.333 3.333 0 00-2.5-3.208" stroke="inherit" stroke-linecap="round" stroke-linejoin="round"/></symbol><symbol fill="inherit" viewBox="0 0 20 20" id="finance" xmlns="http://www.w3.org/2000/svg"><path d="M14.167 6.666v-2.5a.833.833 0 00-.834-.833H5A1.667 1.667 0 003.333 5m0 0A1.667 1.667 0 005 6.666h10a.833.833 0 01.833.834V10m-12.5-5v10A1.667 1.667 0 005 16.666h10a.834.834 0 00.833-.833v-2.5" stroke="inherit" stroke-linecap="round" stroke-linejoin="round"/><path d="M16.667 10v3.333h-3.334a1.667 1.667 0 010-3.333h3.334z" stroke="inherit" stroke-linecap="round" stroke-linejoin="round"/></symbol><symbol fill="inherit" viewBox="0 0 20 20" id="heart" xmlns="http://www.w3.org/2000/svg"><path d="M3.75 11.31L10 17.5l6.25-6.185A4.167 4.167 0 1010 5.838a4.167 4.167 0 10-6.25 5.472z"/><path d="M16.25 11.31L10 17.5m0 0l-6.25-6.19A4.168 4.168 0 1110 5.838a4.167 4.167 0 116.25 5.477L10 17.5z" stroke="inherit" stroke-linecap="round" stroke-linejoin="round"/></symbol><symbol fill="inherit" viewBox="0 0 20 20" id="help" xmlns="http://www.w3.org/2000/svg"><path d="M6.667 6.667c0-.664.307-1.3.854-1.768.547-.47 1.289-.732 2.062-.732h.834c.773 0 1.515.263 2.062.732.547.469.854 1.104.854 1.768a2.5 2.5 0 01-1.666 2.5c-.512.24-.95.694-1.251 1.295A4.2 4.2 0 0010 12.5m0 3.334v.008" stroke="inherit" stroke-linecap="round" stroke-linejoin="round"/></symbol><symbol fill="inherit" viewBox="0 0 20 20" id="info" xmlns="http://www.w3.org/2000/svg"><path d="M10 17.5a7.5 7.5 0 100-15 7.5 7.5 0 000 15zm0-10.833h.008" stroke="inherit" stroke-linecap="round" stroke-linejoin="round"/><path d="M9.167 10H10v3.333h.833" stroke="inherit" stroke-linecap="round" stroke-linejoin="round"/></symbol><symbol fill="inherit" viewBox="0 0 20 20" id="language" xmlns="http://www.w3.org/2000/svg"><path d="M10 17.5a7.5 7.5 0 100-15 7.5 7.5 0 000 15zm-7-10h14m-14 5h14m-7.417-10a14.167 14.167 0 000 15m.833-15a14.167 14.167 0 010 15" stroke="inherit" stroke-linecap="round" stroke-linejoin="round"/></symbol><symbol fill="inherit" viewBox="0 0 20 20" id="logOut" xmlns="http://www.w3.org/2000/svg"><path d="M11.667 6.667V5A1.667 1.667 0 0010 3.333H4.167A1.667 1.667 0 002.5 5v10a1.667 1.667 0 001.667 1.667H10A1.667 1.667 0 0011.667 15v-1.666M5.833 10H17.5m0 0L15 7.5m2.5 2.5L15 12.5" stroke="inherit" stroke-linecap="round" stroke-linejoin="round"/></symbol><symbol fill="inherit" viewBox="0 0 20 20" id="message" xmlns="http://www.w3.org/2000/svg"><path d="M2.5 16.667l1.083-3.25c-.936-1.385-1.275-3.025-.953-4.615.322-1.59 1.283-3.022 2.703-4.03 1.42-1.008 3.205-1.523 5.02-1.45 1.816.074 3.54.732 4.851 1.85 1.312 1.119 2.122 2.623 2.28 4.232.157 1.61-.348 3.216-1.422 4.519-1.075 1.303-2.645 2.215-4.419 2.567a8.33 8.33 0 01-5.226-.656l-3.917.833M10 10v.008M6.667 10v.008M13.333 10v.008" stroke="inherit" stroke-linecap="round" stroke-linejoin="round"/></symbol><symbol fill="inherit" viewBox="0 0 20 20" id="news" xmlns="http://www.w3.org/2000/svg"><path d="M13.333 5h2.5a.833.833 0 01.834.833V15a1.667 1.667 0 01-3.334 0V4.167a.833.833 0 00-.833-.833H4.167a.833.833 0 00-.834.833v10a2.5 2.5 0 002.5 2.5H15m-8.333-10H10M6.667 10H10m-3.333 3.334H10" stroke="inherit" stroke-linecap="round" stroke-linejoin="round"/></symbol><symbol fill="inherit" viewBox="0 0 20 20" id="notification" xmlns="http://www.w3.org/2000/svg"><path d="M8.333 4.167a1.667 1.667 0 013.334 0 5.833 5.833 0 013.333 5v2.5a3.333 3.333 0 001.667 2.5H3.333A3.334 3.334 0 005 11.667v-2.5a5.833 5.833 0 013.333-5" stroke="inherit" stroke-linecap="round" stroke-linejoin="round"/><path d="M7.5 14.166V15a2.5 2.5 0 105 0v-.834" stroke="inherit" stroke-linecap="round" stroke-linejoin="round"/></symbol><symbol fill="inherit" viewBox="0 0 20 20" id="orders" xmlns="http://www.w3.org/2000/svg"><path d="M10 2.5l6.666 3.75v7.5L10 17.5l-6.667-3.75v-7.5L10 2.5zm0 7.5l6.667-3.75M10 10v7.5m0-7.5L3.333 6.25m10.001-1.875l-6.667 3.75" stroke="inherit" stroke-linecap="round" stroke-linejoin="round"/></symbol><symbol fill="inherit" viewBox="0 0 20 20" id="plus" xmlns="http://www.w3.org/2000/svg"><path d="M10 4.167v11.666M4.167 10h11.666" stroke="inherit" stroke-linecap="round" stroke-linejoin="round"/></symbol><symbol fill="inherit" viewBox="0 0 20 20" id="posting" xmlns="http://www.w3.org/2000/svg"><path d="M9.83 17.5H4.166A1.667 1.667 0 012.5 15.833v-10a1.667 1.667 0 011.667-1.667h10a1.667 1.667 0 011.666 1.667v3.333" stroke="inherit" stroke-linecap="round" stroke-linejoin="round"/><path d="M15 18.333a3.333 3.333 0 100-6.666 3.333 3.333 0 000 6.666zM12.5 2.5v3.333M5.833 2.5v3.333M2.5 9.166h13.333" stroke="inherit" stroke-linecap="round" stroke-linejoin="round"/><path d="M15 13.747V15l.833.833" stroke="inherit" stroke-linecap="round" stroke-linejoin="round"/></symbol><symbol fill="inherit" viewBox="0 0 20 20" id="search" xmlns="http://www.w3.org/2000/svg"><path d="M8.333 14.167a5.833 5.833 0 100-11.667 5.833 5.833 0 000 11.667zM17.5 17.5l-5-5" stroke="inherit" stroke-linecap="round" stroke-linejoin="round"/></symbol><symbol fill="inherit" viewBox="0 0 20 20" id="settings" xmlns="http://www.w3.org/2000/svg"><path d="M8.604 3.598c.355-1.464 2.437-1.464 2.792 0a1.437 1.437 0 002.144.888c1.286-.783 2.758.688 1.975 1.975a1.436 1.436 0 00.887 2.143c1.464.355 1.464 2.437 0 2.792a1.437 1.437 0 00-.888 2.144c.784 1.286-.688 2.758-1.975 1.975a1.436 1.436 0 00-2.143.887c-.355 1.464-2.437 1.464-2.792 0a1.437 1.437 0 00-2.144-.888c-1.286.784-2.758-.688-1.975-1.975a1.437 1.437 0 00-.888-2.143c-1.463-.355-1.463-2.437 0-2.792a1.437 1.437 0 00.889-2.144c-.783-1.286.688-2.758 1.975-1.975a1.435 1.435 0 002.143-.888z" stroke="inherit" stroke-linecap="round" stroke-linejoin="round"/><path d="M10 12.5a2.5 2.5 0 100-5 2.5 2.5 0 000 5z" stroke="inherit" stroke-linecap="round" stroke-linejoin="round"/></symbol><symbol fill="inherit" viewBox="0 0 20 20" id="stats" xmlns="http://www.w3.org/2000/svg"><path d="M6.667 10H3.333a.833.833 0 00-.833.833v5c0 .46.373.834.833.834h3.334c.46 0 .833-.373.833-.834v-5A.833.833 0 006.667 10zm5-3.333H8.333A.833.833 0 007.5 7.5v8.334c0 .46.373.833.833.833h3.334c.46 0 .833-.373.833-.833V7.5a.833.833 0 00-.833-.833zm5-3.334h-3.334a.833.833 0 00-.833.833v11.667c0 .46.373.833.833.833h3.334c.46 0 .833-.373.833-.833V4.166a.833.833 0 00-.833-.833zM3.333 16.667H15" stroke="inherit" stroke-linecap="round" stroke-linejoin="round"/></symbol><symbol fill="inherit" viewBox="0 0 20 20" id="stoplist" xmlns="http://www.w3.org/2000/svg"><path d="M10 12.5v.008M10 7.5v1.667V7.5zm-5.833 8.333h11.666a1.667 1.667 0 001.534-2.291L11.45 3.333a1.666 1.666 0 00-2.917 0L2.617 13.542a1.666 1.666 0 001.458 2.291" stroke="inherit" stroke-linecap="round" stroke-linejoin="round"/></symbol><symbol fill="inherit" viewBox="0 0 20 20" id="synchronization" xmlns="http://www.w3.org/2000/svg"><path d="M16.667 9.167A6.75 6.75 0 003.75 7.5m-.417-3.333V7.5h3.334m-3.334 3.334A6.75 6.75 0 0016.25 12.5m.417 3.334V12.5h-3.334" stroke="inherit" stroke-linecap="round" stroke-linejoin="round"/></symbol><symbol fill="inherit" viewBox="0 0 20 20" id="toleft" xmlns="http://www.w3.org/2000/svg"><path d="M2.5 10a7.5 7.5 0 1015 0 7.5 7.5 0 00-15 0zM10 6.667L6.667 10m6.666 0H6.667M10 13.333L6.667 10" stroke="inherit" stroke-linecap="round" stroke-linejoin="round"/></symbol><symbol fill="inherit" viewBox="0 0 20 20" id="veryLeft" xmlns="http://www.w3.org/2000/svg"><path d="M8.333 10h8.333m-8.333 0l3.333 3.333M8.333 10l3.333-3.333M3.333 3.333v13.334" stroke="inherit" stroke-linecap="round" stroke-linejoin="round"/></symbol></svg>