<svg width="63" height="60" viewBox="0 0 63 60" fill="none" xmlns="http://www.w3.org/2000/svg">
<path d="M16.3333 26.6673V53.334C16.3333 54.218 15.9821 55.0659 15.357 55.691C14.7319 56.3161 13.8841 56.6673 13 56.6673H6.33333C5.44928 56.6673 4.60143 56.3161 3.97631 55.691C3.35119 55.0659 3 54.218 3 53.334V30.0007C3 29.1166 3.35119 28.2688 3.97631 27.6436C4.60143 27.0185 5.44928 26.6673 6.33333 26.6673H16.3333ZM16.3333 26.6673C19.8696 26.6673 23.2609 25.2626 25.7614 22.7621C28.2619 20.2616 29.6667 16.8702 29.6667 13.334V10.0007C29.6667 8.23254 30.3691 6.53685 31.6193 5.28661C32.8695 4.03636 34.5652 3.33398 36.3333 3.33398C38.1014 3.33398 39.7971 4.03636 41.0474 5.28661C42.2976 6.53685 43 8.23254 43 10.0007V26.6673H53C54.7681 26.6673 56.4638 27.3697 57.7141 28.6199C58.9643 29.8702 59.6667 31.5659 59.6667 33.334L56.3333 50.0007C55.854 52.0456 54.9446 53.8015 53.7422 55.0039C52.5398 56.2063 51.1095 56.7901 49.6667 56.6673H26.3333C23.6812 56.6673 21.1376 55.6138 19.2623 53.7384C17.3869 51.863 16.3333 49.3195 16.3333 46.6673" stroke="url(#paint0_linear)" stroke-width="6" stroke-linecap="round" stroke-linejoin="round"/>
<defs>
<linearGradient id="paint0_linear" x1="3" y1="3.33398" x2="56.8192" y2="59.416" gradientUnits="userSpaceOnUse">
<stop stop-color="#44C864"/>
<stop offset="1" stop-color="#5ADA7E"/>
</linearGradient>
</defs>
</svg>
