<svg width="20" height="20" viewBox="0 0 20 20" fill="none" xmlns="http://www.w3.org/2000/svg">
<path d="M2.5 16.6663L3.58333 13.4163C2.64704 12.0316 2.30833 10.3917 2.63018 8.80158C2.95204 7.21148 3.91255 5.77939 5.33314 4.77155C6.75373 3.76372 8.53772 3.24874 10.3534 3.32236C12.1691 3.39598 13.8929 4.05319 15.2044 5.17179C16.5159 6.2904 17.3257 7.79428 17.4834 9.40381C17.6411 11.0134 17.1358 12.619 16.0616 13.9223C14.9873 15.2255 13.4172 16.1377 11.6432 16.4891C9.86911 16.8406 8.01184 16.6074 6.41667 15.833L2.5 16.6663" stroke="#232323" stroke-linecap="round" stroke-linejoin="round"/>
<path d="M10 10V10.0083" stroke="#232323" stroke-linecap="round" stroke-linejoin="round"/>
<path d="M6.66675 10V10.0083" stroke="#232323" stroke-linecap="round" stroke-linejoin="round"/>
<path d="M13.3333 10V10.0083" stroke="#232323" stroke-linecap="round" stroke-linejoin="round"/>
</svg>
