<svg width="20" height="20" viewBox="0 0 20 20" fill="none" xmlns="http://www.w3.org/2000/svg">
<path d="M10 12.5V12.5083M10 7.5V9.16667V7.5Z" stroke="#E55652" stroke-linecap="round" stroke-linejoin="round"/>
<path d="M4.16666 15.8324H15.8333C16.1053 15.8305 16.3726 15.7621 16.612 15.6332C16.8514 15.5042 17.0556 15.3187 17.2068 15.0926C17.3581 14.8666 17.4517 14.6071 17.4795 14.3366C17.5074 14.0661 17.4686 13.7929 17.3667 13.5408L11.45 3.33245C11.3059 3.07195 11.0946 2.85481 10.8381 2.70361C10.5817 2.5524 10.2894 2.47266 9.99166 2.47266C9.69395 2.47266 9.40166 2.5524 9.1452 2.70361C8.88874 2.85481 8.67746 3.07195 8.53333 3.33245L2.61666 13.5408C2.51661 13.7871 2.47694 14.0538 2.50095 14.3185C2.52497 14.5833 2.61197 14.8385 2.75471 15.0628C2.89744 15.2871 3.09175 15.474 3.32143 15.6079C3.55111 15.7418 3.80949 15.8188 4.075 15.8324" stroke="#E55652" stroke-linecap="round" stroke-linejoin="round"/>
</svg>
