<svg width="80" height="80" viewBox="0 0 80 80" fill="none" xmlns="http://www.w3.org/2000/svg">
<path d="M23.3333 36.6673V63.334C23.3333 64.218 22.9821 65.0659 22.357 65.691C21.7319 66.3161 20.8841 66.6673 20 66.6673H13.3333C12.4493 66.6673 11.6014 66.3161 10.9763 65.691C10.3512 65.0659 10 64.218 10 63.334V40.0007C10 39.1166 10.3512 38.2688 10.9763 37.6436C11.6014 37.0185 12.4493 36.6673 13.3333 36.6673H23.3333ZM23.3333 36.6673C26.8696 36.6673 30.2609 35.2626 32.7614 32.7621C35.2619 30.2616 36.6667 26.8702 36.6667 23.334V20.0007C36.6667 18.2325 37.3691 16.5368 38.6193 15.2866C39.8695 14.0364 41.5652 13.334 43.3333 13.334C45.1014 13.334 46.7971 14.0364 48.0474 15.2866C49.2976 16.5368 50 18.2325 50 20.0007V36.6673H60C61.7681 36.6673 63.4638 37.3697 64.7141 38.6199C65.9643 39.8702 66.6667 41.5659 66.6667 43.334L63.3333 60.0007C62.854 62.0456 61.9446 63.8015 60.7422 65.0039C59.5398 66.2063 58.1095 66.7901 56.6667 66.6673H33.3333C30.6812 66.6673 28.1376 65.6138 26.2623 63.7384C24.3869 61.863 23.3333 59.3195 23.3333 56.6673" stroke="url(#paint0_linear)" stroke-width="6" stroke-linecap="round" stroke-linejoin="round"/>
<defs>
<linearGradient id="paint0_linear" x1="10" y1="13.334" x2="63.8192" y2="69.416" gradientUnits="userSpaceOnUse">
<stop stop-color="#44C864"/>
<stop offset="1" stop-color="#5ADA7E"/>
</linearGradient>
</defs>
</svg>
