<svg width="74" height="74" viewBox="0 0 74 74" fill="none" xmlns="http://www.w3.org/2000/svg">
<path fill-rule="evenodd" clip-rule="evenodd" d="M0 36.6667C0 57 16.3333 73.3333 36.6667 73.3333C57 73.3333 73.3333 57 73.3333 36.6667C73.3333 16.3333 57 0 36.6667 0C16.3333 0 0 16.3333 0 36.6667ZM6.66667 36.6667C6.66667 20 20 6.66667 36.6667 6.66667C53.3333 6.66667 66.6667 20 66.6667 36.6667C66.6667 53.3333 53.3333 66.6667 36.6667 66.6667C20 66.6667 6.66667 53.3333 6.66667 36.6667ZM40 36.6667V23.3333C40 21.3333 38.6667 20 36.6667 20C34.6667 20 33.3333 21.3333 33.3333 23.3333V36.6667C33.3333 38.6667 34.6667 40 36.6667 40C38.6667 40 40 38.6667 40 36.6667ZM39.6667 51.3333C39.6667 51.6667 39.3334 52 39.0001 52.3333C38.3334 53 37.6667 53.3333 36.3334 53.3333C35.3334 53.3333 34.6667 53 34.0001 52.3333C33.3334 51.6667 33.0001 51 33.0001 50C33.0001 49.6095 33.1144 49.3333 33.2092 49.1046C33.2762 48.9428 33.3334 48.8047 33.3334 48.6667C33.3334 48.3333 33.6667 48 34 47.6667L34.0001 47.6667C35.0001 46.6667 36.3334 46.3333 37.6667 47C37.8334 47 37.9167 47.0833 38.0001 47.1667C38.0834 47.25 38.1667 47.3333 38.3334 47.3333C38.6667 47.3333 39.0001 47.6667 39.0001 47.6667C39.1667 47.8333 39.2501 48 39.3334 48.1666C39.4167 48.3333 39.5001 48.5 39.6667 48.6667C40.0001 49 40.0001 49.6667 40.0001 50C40.0001 50.1666 39.9167 50.4166 39.8334 50.6666C39.7501 50.9166 39.6667 51.1666 39.6667 51.3333Z" fill="url(#paint0_linear)"/>
<defs>
<linearGradient id="paint0_linear" x1="0" y1="0" x2="74.0283" y2="72.6249" gradientUnits="userSpaceOnUse">
<stop stop-color="#FCA12B"/>
<stop offset="1" stop-color="#FAB86A"/>
</linearGradient>
</defs>
</svg>
