<svg width="20" height="21" viewBox="0 0 20 21" fill="none" xmlns="http://www.w3.org/2000/svg">
<path d="M14.1667 9.66602H5.83341C4.91294 9.66602 4.16675 10.4122 4.16675 11.3327V16.3327C4.16675 17.2532 4.91294 17.9993 5.83341 17.9993H14.1667C15.0872 17.9993 15.8334 17.2532 15.8334 16.3327V11.3327C15.8334 10.4122 15.0872 9.66602 14.1667 9.66602Z" stroke="#82868C" stroke-linecap="round" stroke-linejoin="round"/>
<path d="M10.0001 14.6667C10.4603 14.6667 10.8334 14.2936 10.8334 13.8333C10.8334 13.3731 10.4603 13 10.0001 13C9.53984 13 9.16675 13.3731 9.16675 13.8333C9.16675 14.2936 9.53984 14.6667 10.0001 14.6667Z" stroke="#82868C" stroke-linecap="round" stroke-linejoin="round"/>
<path d="M6.66675 9.66602V5.49935C6.66675 4.61529 7.01794 3.76745 7.64306 3.14233C8.26818 2.51721 9.11603 2.16602 10.0001 2.16602C10.8841 2.16602 11.732 2.51721 12.3571 3.14233C12.9822 3.76745 13.3334 4.61529 13.3334 5.49935" stroke="#82868C" stroke-linecap="round" stroke-linejoin="round"/>
</svg>
