<svg width="171" height="54" fill="none" xmlns="http://www.w3.org/2000/svg"><path d="M101.05 12h1v7h-1v-7zm5.786 1.65c.673 0 1.206.197 1.6.59.4.387.6.957.6 1.71V19h-.96v-2.94c0-.513-.124-.9-.37-1.16-.247-.26-.6-.39-1.06-.39-.52 0-.93.153-1.23.46-.3.3-.45.733-.45 1.3V19h-.96v-5.3h.92v.8c.193-.273.453-.483.78-.63.333-.147.71-.22 1.13-.22zm6.806 0c.674 0 1.207.197 1.6.59.4.387.6.957.6 1.71V19h-.96v-2.94c0-.513-.123-.9-.37-1.16-.246-.26-.6-.39-1.06-.39-.52 0-.93.153-1.23.46-.3.3-.45.733-.45 1.3V19h-.96v-5.3h.92v.8a1.88 1.88 0 01.78-.63 2.78 2.78 0 011.13-.22zm6.276 5.41c-.526 0-1-.117-1.42-.35a2.585 2.585 0 01-.99-.96 2.801 2.801 0 01-.35-1.4c0-.52.117-.983.35-1.39.24-.413.57-.733.99-.96a2.88 2.88 0 011.42-.35c.527 0 .997.117 1.41.35.42.227.747.547.98.96.24.407.36.87.36 1.39 0 .52-.12.987-.36 1.4a2.51 2.51 0 01-.98.96 2.82 2.82 0 01-1.41.35zm0-.84c.34 0 .644-.077.91-.23.274-.16.487-.38.64-.66.154-.287.23-.613.23-.98s-.076-.69-.23-.97a1.601 1.601 0 00-.64-.66 1.791 1.791 0 00-.91-.23c-.34 0-.646.077-.92.23-.266.153-.48.373-.64.66a1.99 1.99 0 00-.23.97c0 .367.077.693.23.98.16.28.374.5.64.66.274.153.58.23.92.23zm8.621-4.52l-2.32 5.3h-.98l-2.32-5.3h1l1.82 4.25 1.86-4.25h.94zm2.66-.05c.734 0 1.294.18 1.68.54.394.36.59.897.59 1.61V19h-.91v-.7a1.54 1.54 0 01-.69.57c-.293.127-.643.19-1.05.19-.593 0-1.07-.143-1.43-.43a1.385 1.385 0 01-.53-1.13c0-.467.17-.84.51-1.12.34-.287.88-.43 1.62-.43h1.52v-.19c0-.413-.12-.73-.36-.95-.24-.22-.593-.33-1.06-.33-.313 0-.62.053-.92.16-.3.1-.553.237-.76.41l-.4-.72c.274-.22.6-.387.98-.5.38-.12.784-.18 1.21-.18zm-.22 4.67c.367 0 .684-.08.95-.24.267-.167.46-.4.58-.7v-.74h-1.48c-.813 0-1.22.273-1.22.82 0 .267.104.477.31.63.207.153.494.23.86.23zm7.247.37a1.49 1.49 0 01-.52.28c-.207.06-.42.09-.64.09-.533 0-.947-.143-1.24-.43-.293-.287-.44-.697-.44-1.23v-2.91h-.9v-.79h.9v-1.16h.96v1.16h1.52v.79h-1.52v2.87c0 .287.07.507.21.66.147.153.353.23.62.23.293 0 .543-.083.75-.25l.3.69zm1.161-4.99h.96V19h-.96v-5.3zm.48-1.02a.656.656 0 01-.47-.18.599.599 0 01-.18-.44c0-.173.06-.32.18-.44a.637.637 0 01.47-.19c.186 0 .34.06.46.18.126.113.19.257.19.43a.63.63 0 01-.65.64zm4.583 6.38c-.527 0-1-.117-1.42-.35a2.585 2.585 0 01-.99-.96 2.79 2.79 0 01-.35-1.4c0-.52.116-.983.35-1.39.24-.413.57-.733.99-.96.42-.233.893-.35 1.42-.35.526 0 .996.117 1.41.35.42.227.746.547.98.96.24.407.36.87.36 1.39 0 .52-.12.987-.36 1.4-.234.407-.56.727-.98.96-.414.233-.884.35-1.41.35zm0-.84c.34 0 .643-.077.91-.23a1.7 1.7 0 00.64-.66 2.05 2.05 0 00.23-.98c0-.367-.077-.69-.23-.97a1.613 1.613 0 00-.64-.66 1.794 1.794 0 00-.91-.23c-.34 0-.647.077-.92.23-.267.153-.48.373-.64.66a1.98 1.98 0 00-.23.97c0 .367.076.693.23.98.16.28.373.5.64.66.273.153.58.23.92.23zm6.907-4.57c.674 0 1.207.197 1.6.59.4.387.6.957.6 1.71V19h-.96v-2.94c0-.513-.123-.9-.37-1.16-.246-.26-.6-.39-1.06-.39-.52 0-.93.153-1.23.46-.3.3-.45.733-.45 1.3V19h-.96v-5.3h.92v.8a1.88 1.88 0 01.78-.63 2.78 2.78 0 011.13-.22zM101.05 24H104c.74 0 1.397.147 1.97.44a3.19 3.19 0 011.33 1.24c.32.527.48 1.133.48 1.82s-.16 1.297-.48 1.83a3.21 3.21 0 01-1.33 1.23c-.573.293-1.23.44-1.97.44h-2.95v-7zm2.89 6.13c.567 0 1.063-.11 1.49-.33a2.39 2.39 0 001-.92c.233-.4.35-.86.35-1.38 0-.52-.117-.977-.35-1.37a2.37 2.37 0 00-1-.93c-.427-.22-.923-.33-1.49-.33h-1.89v5.26h1.89zm6.152-3.54c.166-.307.413-.54.74-.7.326-.16.723-.24 1.19-.24v.93a1.879 1.879 0 00-.22-.01c-.52 0-.93.157-1.23.47-.294.307-.44.747-.44 1.32V31h-.96v-5.3h.92v.89zm5.334 4.47c-.527 0-1-.117-1.42-.35a2.585 2.585 0 01-.99-.96 2.801 2.801 0 01-.35-1.4c0-.52.117-.983.35-1.39.24-.413.57-.733.99-.96.42-.233.893-.35 1.42-.35.527 0 .997.117 1.41.35.42.227.747.547.98.96.24.407.36.87.36 1.39 0 .52-.12.987-.36 1.4a2.51 2.51 0 01-.98.96 2.82 2.82 0 01-1.41.35zm0-.84c.34 0 .643-.077.91-.23.273-.16.487-.38.64-.66a2.05 2.05 0 00.23-.98c0-.367-.077-.69-.23-.97a1.607 1.607 0 00-.64-.66 1.794 1.794 0 00-.91-.23c-.34 0-.647.077-.92.23-.267.153-.48.373-.64.66a1.99 1.99 0 00-.23.97c0 .367.077.693.23.98.16.28.373.5.64.66.273.153.58.23.92.23zm6.888-4.57c.513 0 .973.113 1.38.34.406.227.723.543.95.95.233.407.35.877.35 1.41 0 .533-.117 1.007-.35 1.42a2.418 2.418 0 01-.95.95c-.407.227-.867.34-1.38.34-.38 0-.73-.073-1.05-.22a2.18 2.18 0 01-.8-.64v2.74h-.96V25.7h.92v.84a2 2 0 01.81-.66 2.51 2.51 0 011.08-.23zm-.08 4.57c.34 0 .643-.077.91-.23a1.7 1.7 0 00.64-.66c.16-.287.24-.613.24-.98s-.08-.69-.24-.97a1.613 1.613 0 00-.64-.66 1.794 1.794 0 00-.91-.23c-.334 0-.637.08-.91.24a1.71 1.71 0 00-.64.65 1.98 1.98 0 00-.23.97c0 .367.076.693.23.98.153.28.366.5.64.66.273.153.576.23.91.23zm5.606.84c-.433 0-.85-.057-1.25-.17-.4-.12-.713-.27-.94-.45l.4-.76c.233.167.517.3.85.4.333.1.67.15 1.01.15.84 0 1.26-.24 1.26-.72a.467.467 0 00-.17-.38 1.03 1.03 0 00-.43-.2 7.57 7.57 0 00-.72-.15 7.271 7.271 0 01-1.05-.23 1.61 1.61 0 01-.69-.44c-.193-.207-.29-.497-.29-.87 0-.48.2-.863.6-1.15.4-.293.937-.44 1.61-.44.353 0 .707.043 1.06.13.353.087.643.203.87.35l-.41.76c-.433-.28-.943-.42-1.53-.42-.407 0-.717.067-.93.2-.213.133-.32.31-.32.53 0 .173.06.31.18.41.12.1.267.173.44.22.18.047.43.1.75.16.427.073.77.153 1.03.24.267.08.493.22.68.42.187.2.28.48.28.84 0 .48-.207.863-.62 1.15-.407.28-.963.42-1.67.42zm6.32-5.41c.673 0 1.207.197 1.6.59.4.387.6.957.6 1.71V31h-.96v-2.94c0-.513-.123-.9-.37-1.16-.247-.26-.6-.39-1.06-.39-.52 0-.93.153-1.23.46-.3.3-.45.733-.45 1.3V31h-.96v-7.42h.96v2.87c.2-.253.46-.45.78-.59.327-.14.69-.21 1.09-.21zm3.977.05h.96V31h-.96v-5.3zm.48-1.02a.656.656 0 01-.47-.18.599.599 0 01-.18-.44c0-.173.06-.32.18-.44a.637.637 0 01.47-.19c.186 0 .34.06.46.18.126.113.19.257.19.43a.63.63 0 01-.65.64zm5.123.97c.513 0 .973.113 1.38.34.406.227.723.543.95.95.233.407.35.877.35 1.41 0 .533-.117 1.007-.35 1.42a2.418 2.418 0 01-.95.95c-.407.227-.867.34-1.38.34-.38 0-.73-.073-1.05-.22a2.18 2.18 0 01-.8-.64v2.74h-.96V25.7h.92v.84a2 2 0 01.81-.66 2.51 2.51 0 011.08-.23zm-.08 4.57c.34 0 .643-.077.91-.23a1.7 1.7 0 00.64-.66c.16-.287.24-.613.24-.98s-.08-.69-.24-.97a1.613 1.613 0 00-.64-.66 1.794 1.794 0 00-.91-.23c-.334 0-.637.08-.91.24a1.71 1.71 0 00-.64.65 1.98 1.98 0 00-.23.97c0 .367.076.693.23.98.153.28.366.5.64.66.273.153.576.23.91.23zm6.896-4.57c.513 0 .973.113 1.38.34.407.227.723.543.95.95.233.407.35.877.35 1.41 0 .533-.117 1.007-.35 1.42a2.411 2.411 0 01-.95.95c-.407.227-.867.34-1.38.34-.38 0-.73-.073-1.05-.22a2.187 2.187 0 01-.8-.64v2.74h-.96V25.7h.92v.84a2 2 0 01.81-.66c.327-.153.687-.23 1.08-.23zm-.08 4.57c.34 0 .643-.077.91-.23.273-.16.487-.38.64-.66.16-.287.24-.613.24-.98s-.08-.69-.24-.97a1.607 1.607 0 00-.64-.66 1.794 1.794 0 00-.91-.23c-.333 0-.637.08-.91.24a1.71 1.71 0 00-.64.65 1.99 1.99 0 00-.23.97c0 .367.077.693.23.98.153.28.367.5.64.66.273.153.577.23.91.23zm4.086-4.52h.96V31h-.96v-5.3zm.48-1.02a.659.659 0 01-.47-.18.599.599 0 01-.18-.44c0-.173.06-.32.18-.44a.64.64 0 01.47-.19c.187 0 .34.06.46.18a.55.55 0 01.19.43c0 .18-.063.333-.19.46a.622.622 0 01-.46.18zm5.143.97c.674 0 1.207.197 1.6.59.4.387.6.957.6 1.71V31h-.96v-2.94c0-.513-.123-.9-.37-1.16-.246-.26-.6-.39-1.06-.39-.52 0-.93.153-1.23.46-.3.3-.45.733-.45 1.3V31h-.96v-5.3h.92v.8a1.88 1.88 0 01.78-.63 2.78 2.78 0 011.13-.22zm9.076.05v4.58c0 .927-.23 1.61-.69 2.05-.46.447-1.146.67-2.06.67-.5 0-.976-.07-1.43-.21-.453-.133-.82-.327-1.1-.58l.46-.74c.247.213.55.38.91.5.367.127.744.19 1.13.19.62 0 1.077-.147 1.37-.44.3-.293.45-.74.45-1.34v-.42c-.226.273-.506.48-.84.62-.326.133-.683.2-1.07.2-.506 0-.966-.107-1.38-.32a2.482 2.482 0 01-.96-.91 2.579 2.579 0 01-.35-1.34c0-.5.117-.943.35-1.33a2.39 2.39 0 01.96-.91c.414-.213.874-.32 1.38-.32.4 0 .77.073 1.11.22.347.147.63.363.85.65v-.82h.91zm-2.76 4.24c.347 0 .657-.073.93-.22.28-.147.497-.35.65-.61.16-.267.24-.567.24-.9 0-.513-.17-.927-.51-1.24-.34-.32-.776-.48-1.31-.48-.54 0-.98.16-1.32.48-.34.313-.51.727-.51 1.24 0 .333.077.633.23.9.16.26.377.463.65.61.28.147.597.22.95.22zM103.78 36c.907 0 1.62.217 2.14.65.52.433.78 1.03.78 1.79s-.26 1.357-.78 1.79c-.52.433-1.233.65-2.14.65h-1.73V43h-1v-7h2.73zm-.03 4.01c.633 0 1.117-.133 1.45-.4.333-.273.5-.663.5-1.17 0-.507-.167-.893-.5-1.16-.333-.273-.817-.41-1.45-.41h-1.7v3.14h1.7zm4.377-4.43h.96V43h-.96v-7.42zm4.723 2.07c.733 0 1.293.18 1.68.54.393.36.59.897.59 1.61V43h-.91v-.7a1.54 1.54 0 01-.69.57c-.294.127-.644.19-1.05.19-.594 0-1.07-.143-1.43-.43a1.383 1.383 0 01-.53-1.13c0-.467.17-.84.51-1.12.34-.287.88-.43 1.62-.43h1.52v-.19c0-.413-.12-.73-.36-.95-.24-.22-.594-.33-1.06-.33-.314 0-.62.053-.92.16a2.3 2.3 0 00-.76.41l-.4-.72c.273-.22.6-.387.98-.5.38-.12.783-.18 1.21-.18zm-.22 4.67c.366 0 .683-.08.95-.24.266-.167.46-.4.58-.7v-.74h-1.48c-.814 0-1.22.273-1.22.82a.74.74 0 00.31.63c.206.153.493.23.86.23zm7.246.37a1.49 1.49 0 01-.52.28c-.206.06-.42.09-.64.09-.533 0-.946-.143-1.24-.43-.293-.287-.44-.697-.44-1.23v-2.91h-.9v-.79h.9v-1.16h.96v1.16h1.52v.79h-1.52v2.87c0 .287.07.507.21.66.147.153.354.23.62.23.294 0 .544-.083.75-.25l.3.69zm3.101-6.38c-.573 0-.86.31-.86.93v.46h1.54v.79h-1.52V43h-.96v-4.51h-.9v-.79h.9v-.47c0-.527.153-.943.46-1.25.307-.307.737-.46 1.29-.46.213 0 .413.027.6.08.187.053.347.13.48.23l-.29.73a1.196 1.196 0 00-.74-.25zm3.777 6.75c-.526 0-1-.117-1.42-.35a2.585 2.585 0 01-.99-.96 2.801 2.801 0 01-.35-1.4c0-.52.117-.983.35-1.39.24-.413.57-.733.99-.96a2.88 2.88 0 011.42-.35c.527 0 .997.117 1.41.35.42.227.747.547.98.96.24.407.36.87.36 1.39 0 .52-.12.987-.36 1.4a2.51 2.51 0 01-.98.96 2.82 2.82 0 01-1.41.35zm0-.84c.34 0 .644-.077.91-.23.274-.16.487-.38.64-.66.154-.287.23-.613.23-.98s-.076-.69-.23-.97a1.601 1.601 0 00-.64-.66 1.791 1.791 0 00-.91-.23c-.34 0-.646.077-.92.23-.266.153-.48.373-.64.66a1.99 1.99 0 00-.23.97c0 .367.077.693.23.98.16.28.374.5.64.66.274.153.58.23.92.23zm4.998-3.63c.167-.307.413-.54.74-.7.327-.16.723-.24 1.19-.24v.93a1.867 1.867 0 00-.22-.01c-.52 0-.93.157-1.23.47-.293.307-.44.747-.44 1.32V43h-.96v-5.3h.92v.89zm9.743-.94c.667 0 1.193.193 1.58.58.393.387.59.96.59 1.72V43h-.96v-2.94c0-.513-.12-.9-.36-1.16-.233-.26-.57-.39-1.01-.39-.487 0-.873.153-1.16.46-.287.3-.43.733-.43 1.3V43h-.96v-2.94c0-.513-.12-.9-.36-1.16-.233-.26-.57-.39-1.01-.39-.487 0-.873.153-1.16.46-.287.3-.43.733-.43 1.3V43h-.96v-5.3h.92v.79c.193-.273.447-.48.76-.62a2.49 2.49 0 011.07-.22c.413 0 .78.083 1.1.25.32.167.567.41.74.73.2-.307.477-.547.83-.72.36-.173.763-.26 1.21-.26z" fill="#D7D7D7"/><path d="M3.652 12.2h7.128V43H3.652V12.2zm14.438 0h13.99c3.344 0 6.292.645 8.844 1.936 2.582 1.261 4.577 3.05 5.985 5.368 1.437 2.317 2.156 5.016 2.156 8.096s-.72 5.779-2.157 8.096c-1.407 2.317-3.402 4.121-5.983 5.412C38.373 42.369 35.425 43 32.08 43H18.09V12.2zm13.64 24.948c3.08 0 5.529-.85 7.348-2.552 1.847-1.73 2.771-4.063 2.771-6.996 0-2.933-.923-5.25-2.771-6.952-1.82-1.73-4.269-2.596-7.349-2.596h-6.511v19.096h6.512zM67.773 12.2c2.728 0 5.09.455 7.084 1.364 2.024.91 3.579 2.2 4.664 3.872 1.085 1.672 1.628 3.652 1.628 5.94 0 2.259-.543 4.239-1.628 5.94-1.085 1.672-2.64 2.963-4.664 3.872-1.995.88-4.356 1.32-7.084 1.32H61.57V43h-7.128V12.2h13.332zm-.396 16.5c2.141 0 3.77-.455 4.884-1.364 1.115-.939 1.672-2.259 1.672-3.96 0-1.73-.557-3.05-1.672-3.96-1.115-.939-2.743-1.408-4.884-1.408H61.57V28.7h5.808z" fill="#6F64F8"/></svg>