<svg width="35" height="14" fill="none" xmlns="http://www.w3.org/2000/svg"><path d="M.577.7h3.078V14H.577V.7zm6.234 0h6.042c1.444 0 2.717.279 3.82.836 1.114.545 1.975 1.317 2.583 2.318.621 1 .931 2.166.931 3.496s-.31 2.495-.93 3.496c-.609 1-1.47 1.78-2.585 2.337-1.102.545-2.375.817-3.819.817H6.811V.7zm5.89 10.773c1.33 0 2.388-.367 3.173-1.102.798-.747 1.197-1.754 1.197-3.021s-.399-2.267-1.197-3.002c-.785-.747-1.843-1.121-3.173-1.121H9.89v8.246h2.812zM28.266.7c1.178 0 2.197.196 3.059.589.874.393 1.545.95 2.014 1.672.468.722.703 1.577.703 2.565 0 .975-.235 1.83-.703 2.565-.469.722-1.14 1.28-2.014 1.672-.862.38-1.881.57-3.06.57h-2.678V14h-3.078V.7h5.757zm-.171 7.125c.924 0 1.627-.196 2.109-.589.481-.405.722-.975.722-1.71 0-.747-.241-1.317-.722-1.71-.482-.405-1.185-.608-2.11-.608h-2.507v4.617h2.508z" fill="#6F64F8"/></svg>