<svg width="20" height="20" viewBox="0 0 20 20" fill="none" xmlns="http://www.w3.org/2000/svg">
<path d="M7.49992 5.83398H4.99992C4.55789 5.83398 4.13397 6.00958 3.82141 6.32214C3.50885 6.6347 3.33325 7.05862 3.33325 7.50065V15.0007C3.33325 15.4427 3.50885 15.8666 3.82141 16.1792C4.13397 16.4917 4.55789 16.6673 4.99992 16.6673H12.4999C12.9419 16.6673 13.3659 16.4917 13.6784 16.1792C13.991 15.8666 14.1666 15.4427 14.1666 15.0007V12.5007" stroke="#82868C" stroke-linecap="round" stroke-linejoin="round"/>
<path d="M7.5 12.4995H10L17.0833 5.4162C17.4149 5.08468 17.6011 4.63504 17.6011 4.1662C17.6011 3.69736 17.4149 3.24772 17.0833 2.9162C16.7518 2.58468 16.3022 2.39844 15.8333 2.39844C15.3645 2.39844 14.9149 2.58468 14.5833 2.9162L7.5 9.99954V12.4995Z" stroke="#82868C" stroke-linecap="round" stroke-linejoin="round"/>
<path d="M13.3333 4.16602L15.8333 6.66602" stroke="#82868C" stroke-linecap="round" stroke-linejoin="round"/>
</svg>
