<svg width="20" height="20" viewBox="0 0 20 20" fill="none" xmlns="http://www.w3.org/2000/svg">
<path d="M16.6667 9.16658C16.4629 7.7001 15.7826 6.3413 14.7306 5.2995C13.6785 4.25769 12.3132 3.59068 10.8448 3.40121C9.37636 3.21174 7.88639 3.51032 6.60438 4.25096C5.32236 4.99159 4.31942 6.1332 3.75004 7.49992M3.33337 4.16658V7.49992H6.66671" stroke="#232323" stroke-linecap="round" stroke-linejoin="round"/>
<path d="M3.33337 10.833C3.53717 12.2995 4.21748 13.6583 5.26951 14.7001C6.32153 15.7419 7.68691 16.4089 9.15532 16.5984C10.6237 16.7879 12.1137 16.4893 13.3957 15.7486C14.6777 15.008 15.6807 13.8664 16.25 12.4997M16.6667 15.833V12.4997H13.3334" stroke="#232323" stroke-linecap="round" stroke-linejoin="round"/>
</svg>
