<svg width="20" height="20" viewBox="0 0 20 20" fill="none" xmlns="http://www.w3.org/2000/svg">
<path d="M3.33325 5.83301H16.6666" stroke="#fff" stroke-linecap="round" stroke-linejoin="round"/>
<path d="M8.33325 9.16699V14.167" stroke="#fff" stroke-linecap="round" stroke-linejoin="round"/>
<path d="M11.6667 9.16699V14.167" stroke="#fff" stroke-linecap="round" stroke-linejoin="round"/>
<path d="M4.16675 5.83301L5.00008 15.833C5.00008 16.275 5.17568 16.699 5.48824 17.0115C5.8008 17.3241 6.22472 17.4997 6.66675 17.4997H13.3334C13.7754 17.4997 14.1994 17.3241 14.5119 17.0115C14.8245 16.699 15.0001 16.275 15.0001 15.833L15.8334 5.83301" stroke="#fff" stroke-linecap="round" stroke-linejoin="round"/>
<path d="M7.5 5.83333V3.33333C7.5 3.11232 7.5878 2.90036 7.74408 2.74408C7.90036 2.5878 8.11232 2.5 8.33333 2.5H11.6667C11.8877 2.5 12.0996 2.5878 12.2559 2.74408C12.4122 2.90036 12.5 3.11232 12.5 3.33333V5.83333" stroke="#fff" stroke-linecap="round" stroke-linejoin="round"/>
</svg>
