<svg width="20" height="20" viewBox="0 0 20 20" fill="none" xmlns="http://www.w3.org/2000/svg">
<path d="M5.83354 15.8333C6.75401 15.8333 7.5002 15.0871 7.5002 14.1667C7.5002 13.2462 6.75401 12.5 5.83354 12.5C4.91306 12.5 4.16687 13.2462 4.16687 14.1667C4.16687 15.0871 4.91306 15.8333 5.83354 15.8333Z" stroke="#fff" stroke-linecap="round" stroke-linejoin="round"/>
<path d="M14.1667 15.8333C15.0871 15.8333 15.8333 15.0871 15.8333 14.1667C15.8333 13.2462 15.0871 12.5 14.1667 12.5C13.2462 12.5 12.5 13.2462 12.5 14.1667C12.5 15.0871 13.2462 15.8333 14.1667 15.8333Z" stroke="#fff" stroke-linecap="round" stroke-linejoin="round"/>
<path d="M4.16687 14.167H2.5002V10.8337M1.66687 4.16699H10.8335V14.167M7.5002 14.167H12.5002M15.8335 14.167H17.5002V9.16699M17.5002 9.16699H10.8335M17.5002 9.16699L15.0002 5.00033H10.8335" stroke="#fff" stroke-linecap="round" stroke-linejoin="round"/>
<path d="M2.5 7.5H5.83333" stroke="#fff" stroke-linecap="round" stroke-linejoin="round"/>
</svg>
